<svg xmlns="http://www.w3.org/2000/svg" width="500" height="440"><rect width="500" height="440" fill="#0b161b"/><text x="14" y="24" fill="white" font-family="sans-serif" font-size="13">raw / combined</text><polygon points="200.66159378266974,208.6922493343235 208.46861336161479,204.13714808574812 216.47550297670773,199.69381652578713 224.6553924001332,195.49710849355773 234.5944875697817,196.11743544609993 243.05356689185132,200.5178705836289 251.28886299069816,204.8691703313272 259.383147063545,209.06132685009237 267.4653783224891,213.09818087007795 275.6337323598212,217.071876342124 283.80925682662104,221.13742605717144 291.8802133106482,225.3654634390097 299.70918869156213,229.73985619317918 307.2420400128505,234.17257901263557 314.6133355908214,238.5409473366312 322.0716418487092,242.7739932224683 329.8720964881592,246.87864097144637 338.1481159316184,250.92177434806865 346.83236861708417,254.98449164151984 355.6699522957338,259.11654693814023 364.32679732263995,263.31463622245167 372.5499742356324,267.534214072135 379.18637778561435,272.0774201900914 372.0911138932073,276.62354347117196 363.96329339946345,280.8047733511946 356.2507948636767,285.0679700216527 348.86898527225964,289.46292316534357 341.5522650385752,293.9766005679895 333.98725953112694,298.51383996527755 325.99710939913405,302.9465831855081 317.57925134923266,307.15602058031817 308.91634447155144,311.1148479631109 300.24954240268164,314.90243615790274 291.75009520598803,318.67159309042654 283.49340523319495,322.59878505749253 275.40573815940036,326.767112998995 265.3461268622424,327.3565454735095 257.2849902241092,323.371042674623 249.1785440515047,319.1789306161129 241.1102641084469,314.759884021962 233.18754120257654,310.20222151178615 225.4050937094825,305.67696320028597 217.66877057735425,301.3255424792972 209.8030801456997,297.20701317779043 201.66347656850382,293.267570722631 193.22214622245792,289.38302548472853 184.62811049946828,285.4192068399308 176.1236718569302,281.3101568435677 167.93989010710374,277.06581812237135 160.14151561461117,272.75821208284066 152.59723128407938,268.4584446214543 145.0260604275507,264.20008483433077 137.17193947676043,259.9515392845909 128.9565099745103,255.64180155312363 121.06531111952665,251.06496730499995 126.87357843589999,246.30662641001956 134.84079612080217,242.0278675669554 143.29276059039347,237.83936750589896 152.03413429490047,233.77071233362275 160.7511877700067,229.78392860037278 169.18090666894096,225.7847878421099 177.2123683807621,221.6574764360934 184.94263039544535,217.34210966348607 192.57959928538017,212.86567648428888" fill="#6abfae" fill-opacity=".35" stroke="#aedcd0" stroke-width=".6"/><polygon points="200.66159378266974,113.66224933432352 208.46861336161479,109.10714808574812 216.47550297670773,104.66381652578713 224.6553924001332,100.46710849355773 234.5944875697817,101.0874354460999 243.05356689185132,105.4878705836289 251.28886299069816,109.83917033132724 259.383147063545,114.03132685009237 267.4653783224891,118.06818087007795 275.6337323598212,122.041876342124 283.80925682662104,126.10742605717144 291.8802133106482,130.3354634390097 299.70918869156213,134.70985619317918 307.2420400128505,139.14257901263557 314.6133355908214,143.5109473366312 322.0716418487092,147.7439932224683 329.8720964881592,151.84864097144637 338.1481159316184,155.89177434806865 346.83236861708417,159.95449164151984 355.6699522957338,164.08654693814026 364.32679732263995,168.2846362224517 372.5499742356324,172.504214072135 379.18637778561435,177.04742019009137 372.0911138932073,181.59354347117198 363.96329339946345,185.77477335119465 356.2507948636767,190.0379700216527 348.86898527225964,194.4329231653436 341.5522650385752,198.94660056798955 333.98725953112694,203.48383996527753 325.99710939913405,207.91658318550807 317.57925134923266,212.12602058031817 308.91634447155144,216.0848479631109 300.24954240268164,219.87243615790277 291.75009520598803,223.64159309042654 283.49340523319495,227.56878505749253 275.40573815940036,231.737112998995 265.3461268622424,232.32654547350955 257.2849902241092,228.34104267462303 249.1785440515047,224.1489306161129 241.1102641084469,219.729884021962 233.18754120257654,215.17222151178615 225.4050937094825,210.646963200286 217.66877057735425,206.29554247929724 209.8030801456997,202.17701317779046 201.66347656850382,198.23757072263098 193.22214622245792,194.3530254847285 184.62811049946828,190.3892068399308 176.1236718569302,186.28015684356774 167.93989010710374,182.03581812237135 160.14151561461117,177.72821208284068 152.59723128407938,173.42844462145428 145.0260604275507,169.17008483433074 137.17193947676043,164.9215392845909 128.9565099745103,160.61180155312366 121.06531111952665,156.03496730499995 126.87357843589999,151.27662641001956 134.84079612080217,146.9978675669554 143.29276059039347,142.80936750589896 152.03413429490047,138.74071233362275 160.7511877700067,134.75392860037277 169.18090666894096,130.7547878421099 177.2123683807621,126.62747643609339 184.94263039544535,122.31210966348607 192.57959928538017,117.83567648428891" fill="#6abfae" fill-opacity=".35" stroke="#aedcd0" stroke-width=".6"/></svg>