<svg xmlns="http://www.w3.org/2000/svg" width="500" height="440" viewBox="0 0 500 440"><rect width="500" height="440" fill="#081114"/><text x="15" y="24" fill="#9ce3df" font-family="sans-serif" font-size="14">contained-room-within-volume / connections</text><polygon points="233.5637869477272,200.25993866622449 240.63958143281937,200.25993866622449 240.63958143281937,190.1979392659664" fill="rgb(192,197,200)"/><polygon points="240.63958143281937,200.25993866622449 233.5637869477272,200.25993866622449 227.43596860551833,202.11145490348338" fill="rgb(215,220,223)"/><polygon points="233.5637869477272,200.25993866622449 240.63958143281937,190.1979392659664 233.5637869477272,190.1979392659664" fill="rgb(192,197,200)"/><polygon points="227.43596860551833,202.11145490348338 233.5637869477272,200.25993866622449 233.5637869477272,190.1979392659664" fill="rgb(186,191,194)"/><polygon points="240.63958143281937,200.25993866622449 246.7673953924179,192.04945779681208 240.63958143281937,190.1979392659664" fill="rgb(190,195,198)"/><polygon points="240.63958143281937,200.25993866622449 246.7673953924179,202.11145719707014 246.7673953924179,192.04945779681208" fill="rgb(190,195,198)"/><polygon points="250.3052970175743,205.31837539374828 240.63958143281937,200.25993866622449 227.43596860551833,202.11145490348338" fill="rgb(215,220,223)"/><polygon points="250.3052970175743,205.31837539374828 246.7673953924179,202.11145719707014 240.63958143281937,200.25993866622449" fill="rgb(215,220,223)"/><polygon points="227.43596860551833,192.04945550322532 233.5637869477272,190.1979392659664 240.63958143281937,190.1979392659664" fill="rgb(215,220,223)"/><polygon points="227.43596860551833,202.11145490348338 233.5637869477272,190.1979392659664 227.43596860551833,192.04945550322532" fill="rgb(186,191,194)"/><polygon points="223.89807136297227,205.31837539374828 227.43596860551833,202.11145490348338 227.43596860551833,192.04945550322532" fill="rgb(172,177,180)"/><polygon points="227.43596860551833,192.04945550322532 240.63958143281937,190.1979392659664 250.3052970175743,195.25637599349022" fill="rgb(215,220,223)"/><polygon points="240.63958143281937,190.1979392659664 246.7673953924179,192.04945779681208 250.3052970175743,195.25637599349022" fill="rgb(215,220,223)"/><polygon points="246.7673953924179,202.11145719707014 250.3052970175743,195.25637599349022 246.7673953924179,192.04945779681208" fill="rgb(180,185,188)"/><polygon points="246.7673953924179,202.11145719707014 250.3052970175743,205.31837539374828 250.3052970175743,195.25637599349022" fill="rgb(180,185,188)"/><polygon points="223.89807136297227,205.31837539374828 227.43596860551833,192.04945550322532 223.89807136297227,195.25637599349022" fill="rgb(172,177,180)"/><polygon points="227.43596860551833,202.11145490348338 223.89807136297227,205.31837539374828 223.89807136297227,209.02140786826612" fill="rgb(215,220,223)"/><polygon points="244.79743396615982,208.3728479269147 229.40593003177642,204.84893769532442 229.40593003177642,199.70613743543623" fill="rgb(191,196,199)"/><polygon points="244.37459533977508,204.41135345727204 229.82876865816115,203.66763190507888 244.37459533977508,199.26855319738388" fill="rgb(186,191,194)"/><polygon points="223.89807136297227,209.02140786826612 223.89807136297227,205.31837539374828 223.89807136297227,195.25637599349022" fill="rgb(165,170,173)"/><polygon points="227.43596860551833,202.11145490348338 233.5637869477272,214.0798445957899 250.3052970175743,205.31837539374828" fill="rgb(215,220,223)"/><polygon points="223.89807136297227,198.95940846800804 223.89807136297227,195.25637599349022 227.43596860551833,192.04945550322532" fill="rgb(215,220,223)"/><polygon points="250.3052970175743,205.31837539374828 250.3052970175743,198.95940846800804 250.3052970175743,195.25637599349022" fill="rgb(165,170,173)"/><polygon points="249.64598150348664,205.72955114632845 224.55738249444963,198.54823450922964 249.64598150348664,196.78555117964746" fill="rgb(191,196,199)"/><polygon points="249.64598150348664,205.72955114632845 224.55738249444963,207.49223447591066 224.55738249444963,198.54823450922964" fill="rgb(191,196,199)"/><polygon points="244.37459533977508,204.41135345727204 229.82876865816115,208.81043216496704 229.82876865816115,203.66763190507888" fill="rgb(186,191,194)"/><polygon points="250.72643080854417,209.45225639998912 249.64598150348664,205.72955114632845 249.64598150348664,196.78555117964746" fill="rgb(169,174,177)"/><polygon points="250.3052970175743,205.31837539374828 250.3052970175743,209.02140786826612 250.3052970175743,198.95940846800804" fill="rgb(165,170,173)"/><polygon points="227.43596860551833,202.11145490348338 223.89807136297227,209.02140786826612 233.5637869477272,214.0798445957899" fill="rgb(215,220,223)"/><polygon points="244.79743396615982,208.3728479269147 229.40593003177642,199.70613743543623 244.79743396615982,203.23004766702653" fill="rgb(191,196,199)"/><polygon points="246.76739977502822,212.228328358531 250.3052970175743,209.02140786826612 250.3052970175743,205.31837539374828" fill="rgb(215,220,223)"/><polygon points="250.3052970175743,195.25637599349022 233.5637869477272,204.01784519553183 227.43596860551833,192.04945550322532" fill="rgb(215,220,223)"/><polygon points="223.89807136297227,209.02140786826612 223.89807136297227,195.25637599349022 223.89807136297227,198.95940846800804" fill="rgb(165,170,173)"/><polygon points="249.64598150348664,205.72955114632845 224.55738249444963,207.49223447591066 225.63783179950715,211.21493972957134" fill="rgb(213,218,221)"/><polygon points="257.5469820685387,216.51753954678773 244.37459533977508,204.41135345727204 244.37459533977508,199.26855319738388" fill="rgb(180,185,188)"/><polygon points="233.5637869477272,204.01784519553183 223.89807136297227,198.95940846800804 227.43596860551833,192.04945550322532" fill="rgb(215,220,223)"/><polygon points="229.40593003177642,204.84893769532442 219.41211689925194,211.8823845720291 229.40593003177642,199.70613743543623" fill="rgb(168,173,176)"/><polygon points="250.72643080854417,209.45225639998912 249.64598150348664,196.78555117964746 250.72643080854417,200.50825659990312" fill="rgb(169,174,177)"/><polygon points="225.63783179950715,202.27093992948534 224.55738249444963,198.54823450922964 249.64598150348664,196.78555117964746" fill="rgb(213,218,221)"/><polygon points="233.5637869477272,214.0798445957899 246.76739977502822,212.228328358531 250.3052970175743,205.31837539374828" fill="rgb(215,220,223)"/><polygon points="250.3052970175743,195.25637599349022 250.3052970175743,198.95940846800804 246.76739977502822,202.16632895827294" fill="rgb(215,220,223)"/><polygon points="224.55738249444963,207.49223447591066 225.63783179950715,202.27093992948534 224.55738249444963,198.54823450922964" fill="rgb(169,174,177)"/><polygon points="227.43596641421317,212.22832950532438 223.89807136297227,209.02140786826612 223.89807136297227,198.95940846800804" fill="rgb(180,185,188)"/><polygon points="251.8068801136017,213.17496169529855 250.72643080854417,209.45225639998912 249.64598150348664,205.72955114632845" fill="rgb(169,174,177)"/><polygon points="244.79743396615982,208.3728479269147 229.40593003177642,204.84893769532442 219.41211689925194,217.02518483191727" fill="rgb(215,220,223)"/><polygon points="250.3052970175743,209.02140786826612 246.76739977502822,202.16632895827294 250.3052970175743,198.95940846800804" fill="rgb(172,177,180)"/><polygon points="224.55738249444963,207.49223447591066 225.63783179950715,211.21493972957134 225.63783179950715,202.27093992948534" fill="rgb(169,174,177)"/><polygon points="219.41211689925194,211.8823845720291 229.40593003177642,199.70613743543623 244.79743396615982,203.23004766702653" fill="rgb(215,220,223)"/><polygon points="250.3052970175743,209.02140786826612 246.76739977502822,212.228328358531 246.76739977502822,202.16632895827294" fill="rgb(172,177,180)"/><polygon points="223.89807136297227,209.02140786826612 227.43596641421317,212.22832950532438 233.5637869477272,214.0798445957899" fill="rgb(215,220,223)"/><polygon points="249.64598150348664,205.72955114632845 225.63783179950715,211.21493972957134 226.71828110456465,214.93764502488077" fill="rgb(213,218,221)"/><polygon points="244.37459533977508,204.41135345727204 229.82876865816115,208.81043216496704 242.89535040855407,220.81937935143708" fill="rgb(215,220,223)"/><polygon points="249.64598150348664,196.78555117964746 250.72643080854417,200.50825659990312 251.8068801136017,204.23096202015876" fill="rgb(160,165,168)"/><polygon points="250.3052970175743,195.25637599349022 246.76739977502822,202.16632895827294 233.5637869477272,204.01784519553183" fill="rgb(215,220,223)"/><polygon points="227.43596641421317,212.22832950532438 223.89807136297227,198.95940846800804 227.43596641421317,202.1663301050663" fill="rgb(180,185,188)"/><polygon points="251.8068801136017,213.17496169529855 250.72643080854417,209.45225639998912 250.72643080854417,200.50825659990312" fill="rgb(169,174,177)"/><polygon points="242.89535040855407,215.67657909154892 229.82876865816115,203.66763190507888 244.37459533977508,199.26855319738388" fill="rgb(215,220,223)"/><polygon points="234.89236431002618,220.44097767859697 244.79743396615982,208.3728479269147 244.79743396615982,203.23004766702653" fill="rgb(168,173,176)"/><polygon points="226.71828110456465,205.99364534974097 225.63783179950715,202.27093992948534 249.64598150348664,196.78555117964746" fill="rgb(213,218,221)"/><polygon points="233.5637869477272,214.0798445957899 227.43596641421317,212.22832950532438 227.43596641421317,202.1663301050663" fill="rgb(190,195,198)"/><polygon points="233.5637869477272,214.0798445957899 240.63958143281937,214.0798445957899 246.76739977502822,212.228328358531" fill="rgb(215,220,223)"/><polygon points="233.5637869477272,204.01784519553183 227.43596641421317,202.1663301050663 223.89807136297227,198.95940846800804" fill="rgb(215,220,223)"/><polygon points="252.88732941865922,216.8976670426689 251.8068801136017,213.17496169529855 249.64598150348664,205.72955114632845" fill="rgb(169,174,177)"/><polygon points="257.5469820685387,216.51753954678773 244.37459533977508,199.26855319738388 257.5469820685387,211.37473928689957" fill="rgb(180,185,188)"/><polygon points="229.40593003177642,204.84893769532442 219.41211689925194,217.02518483191727 219.41211689925194,211.8823845720291" fill="rgb(168,173,176)"/><polygon points="246.76739977502822,212.228328358531 240.63958143281937,204.01784519553183 246.76739977502822,202.16632895827294" fill="rgb(186,191,194)"/><polygon points="246.76739977502822,212.228328358531 240.63958143281937,214.0798445957899 240.63958143281937,204.01784519553183" fill="rgb(186,191,194)"/><polygon points="229.82876865816115,208.81043216496704 242.89535040855407,215.67657909154892 229.82876865816115,203.66763190507888" fill="rgb(180,185,188)"/><polygon points="251.8068801136017,213.17496169529855 250.72643080854417,200.50825659990312 251.8068801136017,204.23096202015876" fill="rgb(169,174,177)"/><polygon points="233.5637869477272,214.0798445957899 227.43596641421317,202.1663301050663 233.5637869477272,204.01784519553183" fill="rgb(190,195,198)"/><polygon points="240.63958143281937,214.0798445957899 233.5637869477272,214.0798445957899 233.5637869477272,204.01784519553183" fill="rgb(192,197,200)"/><polygon points="225.63783179950715,211.21493972957134 226.71828110456465,205.99364534974097 225.63783179950715,202.27093992948534" fill="rgb(169,174,177)"/><polygon points="249.64598150348664,196.78555117964746 251.8068801136017,204.23096202015876 252.88732941865922,207.95366744041442" fill="rgb(160,165,168)"/><polygon points="246.76739977502822,202.16632895827294 240.63958143281937,204.01784519553183 233.5637869477272,204.01784519553183" fill="rgb(215,220,223)"/><polygon points="240.63958143281937,214.0798445957899 233.5637869477272,204.01784519553183 240.63958143281937,204.01784519553183" fill="rgb(192,197,200)"/><polygon points="225.63783179950715,211.21493972957134 226.71828110456465,214.93764502488077 226.71828110456465,205.99364534974097" fill="rgb(169,174,177)"/><polygon points="249.64598150348664,205.72955114632845 226.71828110456465,214.93764502488077 228.8791797146797,222.38305561549961" fill="rgb(213,218,221)"/><polygon points="252.88732941865922,216.8976670426689 251.8068801136017,213.17496169529855 251.8068801136017,204.23096202015876" fill="rgb(169,174,177)"/><polygon points="270.4175384244919,228.70466172486545 257.5469820685387,216.51753954678773 244.37459533977508,204.41135345727204" fill="rgb(215,220,223)"/><polygon points="234.89236431002618,220.44097767859697 244.79743396615982,203.23004766702653 234.89236431002618,215.2981774187088" fill="rgb(168,173,176)"/><polygon points="228.8791797146797,213.43905552387238 226.71828110456465,205.99364534974097 249.64598150348664,196.78555117964746" fill="rgb(213,218,221)"/><polygon points="229.82876865816115,208.81043216496704 242.89535040855407,220.81937935143708 242.89535040855407,215.67657909154892" fill="rgb(180,185,188)"/><polygon points="255.04822802877425,224.34307758122682 252.88732941865922,216.8976670426689 249.64598150348664,205.72955114632845" fill="rgb(169,174,177)"/><polygon points="244.37459533977508,199.26855319738388 257.5469820685387,211.37473928689957 270.4175384244919,223.56186146497726" fill="rgb(215,220,223)"/><polygon points="252.88732941865922,216.8976670426689 251.8068801136017,204.23096202015876 252.88732941865922,207.95366744041442" fill="rgb(169,174,177)"/><polygon points="244.79743396615982,208.3728479269147 219.41211689925194,217.02518483191727 209.7359268758297,229.26387372046707" fill="rgb(215,220,223)"/><polygon points="226.71828110456465,214.93764502488077 227.79873040962218,209.71635076999664 226.71828110456465,205.99364534974097" fill="rgb(169,174,177)"/><polygon points="249.64598150348664,196.78555117964746 252.88732941865922,207.95366744041442 255.04822802877425,215.39907828092575" fill="rgb(160,165,168)"/><polygon points="209.7359268758297,224.1210734605789 219.41211689925194,211.8823845720291 244.79743396615982,203.23004766702653" fill="rgb(215,220,223)"/><polygon points="244.37459533977508,204.41135345727204 242.89535040855407,220.81937935143708 255.66237197828292,232.9084667518735" fill="rgb(215,220,223)"/><polygon points="226.71828110456465,214.93764502488077 227.79873040962218,218.66035037225112 227.79873040962218,209.71635076999664" fill="rgb(169,174,177)"/><polygon points="255.66237197828292,227.76566649198531 242.89535040855407,215.67657909154892 244.37459533977508,199.26855319738388" fill="rgb(215,220,223)"/><polygon points="226.71828110456465,214.93764502488077 227.79873040962218,218.66035037225112 228.8791797146797,222.38305561549961" fill="rgb(169,174,177)"/><polygon points="253.96777872371675,220.6203722859174 252.88732941865922,216.8976670426689 252.88732941865922,207.95366744041442" fill="rgb(169,174,177)"/><polygon points="270.4175384244919,228.70466172486545 257.5469820685387,216.51753954678773 257.5469820685387,211.37473928689957" fill="rgb(180,185,188)"/><polygon points="219.41211689925194,217.02518483191727 209.7359268758297,224.1210734605789 219.41211689925194,211.8823845720291" fill="rgb(168,173,176)"/><polygon points="228.8791797146797,213.43905552387238 227.79873040962218,209.71635076999664 226.71828110456465,205.99364534974097" fill="rgb(169,174,177)"/><polygon points="253.96777872371675,220.6203722859174 252.88732941865922,207.95366744041442 253.96777872371675,211.67637219429017" fill="rgb(169,174,177)"/><polygon points="249.64598150348664,205.72955114632845 228.8791797146797,222.38305561549961 232.12052872550487,233.55117313832045" fill="rgb(213,218,221)"/><polygon points="227.79873040962218,218.66035037225112 228.8791797146797,213.43905552387238 227.79873040962218,209.71635076999664" fill="rgb(169,174,177)"/><polygon points="255.04822802877425,224.34307758122682 253.96777872371675,220.6203722859174 252.88732941865922,216.8976670426689" fill="rgb(169,174,177)"/><polygon points="232.12052872550487,233.55117313832045 255.04822802877425,224.34307758122682 249.64598150348664,205.72955114632845" fill="rgb(213,218,221)"/><polygon points="227.79873040962218,218.66035037225112 228.8791797146797,222.38305561549961 228.8791797146797,213.43905552387238" fill="rgb(169,174,177)"/><polygon points="232.12052872550487,224.6071728384495 228.8791797146797,213.43905552387238 249.64598150348664,196.78555117964746" fill="rgb(213,218,221)"/><polygon points="252.88732941865922,207.95366744041442 253.96777872371675,211.67637219429017 255.04822802877425,215.39907828092575" fill="rgb(169,174,177)"/><polygon points="225.3022290315628,232.57081408768892 234.89236431002618,220.44097767859697 234.89236431002618,215.2981774187088" fill="rgb(168,173,176)"/><polygon points="255.04822802877425,224.34307758122682 253.96777872371675,220.6203722859174 253.96777872371675,211.67637219429017" fill="rgb(169,174,177)"/><polygon points="249.64598150348664,196.78555117964746 255.04822802877425,215.39907828092575 232.12052872550487,224.6071728384495" fill="rgb(213,218,221)"/><polygon points="270.4175384244919,228.70466172486545 257.5469820685387,211.37473928689957 270.4175384244919,223.56186146497726" fill="rgb(180,185,188)"/><polygon points="242.89535040855407,220.81937935143708 255.66237197828292,227.76566649198531 242.89535040855407,215.67657909154892" fill="rgb(180,185,188)"/><polygon points="219.41211689925194,217.02518483191727 209.7359268758297,229.26387372046707 209.7359268758297,224.1210734605789" fill="rgb(168,173,176)"/><polygon points="255.04822802877425,224.34307758122682 253.96777872371675,211.67637219429017 255.04822802877425,215.39907828092575" fill="rgb(169,174,177)"/><polygon points="228.8791797146797,222.38305561549961 229.95963340234758,217.1617639040947 228.8791797146797,213.43905552387238" fill="rgb(169,174,177)"/><polygon points="244.37459533977508,204.41135345727204 255.66237197828292,232.9084667518735 268.1298673325777,245.0777190223336" fill="rgb(215,220,223)"/><polygon points="228.8791797146797,222.38305561549961 229.95963340234758,226.10576320439577 229.95963340234758,217.1617639040947" fill="rgb(169,174,177)"/><polygon points="268.1298673325777,239.93491876244545 255.66237197828292,227.76566649198531 244.37459533977508,199.26855319738388" fill="rgb(215,220,223)"/><polygon points="295.25303840053084,253.32161170870066 270.4175384244919,228.70466172486545 244.37459533977508,204.41135345727204" fill="rgb(215,220,223)"/><polygon points="228.8791797146797,222.38305561549961 229.95963340234758,226.10576320439577 231.0400816117525,229.8284691980481" fill="rgb(213,218,221)"/><polygon points="225.3022290315628,232.57081408768892 234.89236431002618,215.2981774187088 225.3022290315628,227.42801382780075" fill="rgb(168,173,176)"/><polygon points="256.12867952513693,228.06578414827587 255.04822802877425,224.34307758122682 255.04822802877425,215.39907828092575" fill="rgb(169,174,177)"/><polygon points="242.89535040855407,220.81937935143708 255.66237197828292,232.9084667518735 255.66237197828292,227.76566649198531" fill="rgb(180,185,188)"/><polygon points="244.37459533977508,199.26855319738388 270.4175384244919,223.56186146497726 295.25303840053084,248.1788114488125" fill="rgb(215,220,223)"/><polygon points="231.0400816117525,220.88446923136712 229.95963340234758,217.1617639040947 228.8791797146797,213.43905552387238" fill="rgb(207,212,215)"/><polygon points="244.79743396615982,208.3728479269147 209.7359268758297,229.26387372046707 191.33649504327775,253.9284506061673" fill="rgb(215,220,223)"/><polygon points="256.12867952513693,228.06578414827587 255.04822802877425,215.39907828092575 256.12867952513693,219.12178418159485" fill="rgb(169,174,177)"/><polygon points="191.33649504327775,248.78565034627914 209.7359268758297,224.1210734605789 244.79743396615982,203.23004766702653" fill="rgb(215,220,223)"/><polygon points="229.95963340234758,226.10576320439577 231.0400816117525,220.88446923136712 229.95963340234758,217.1617639040947" fill="rgb(169,174,177)"/><polygon points="257.20912883019446,231.78848923534156 256.12867952513693,228.06578414827587 255.04822802877425,224.34307758122682" fill="rgb(208,213,216)"/><polygon points="228.8791797146797,222.38305561549961 231.0400816117525,229.8284691980481 232.12052872550487,233.55117313832045" fill="rgb(210,215,218)"/><polygon points="229.95963340234758,226.10576320439577 231.0400816117525,229.8284691980481 231.0400816117525,220.88446923136712" fill="rgb(169,174,177)"/><polygon points="255.04822802877425,215.39907828092575 256.12867952513693,219.12178418159485 257.20912883019446,222.84448893547057" fill="rgb(212,217,220)"/><polygon points="282.98623099023104,240.9726933285594 270.4175384244919,228.70466172486545 270.4175384244919,223.56186146497726" fill="rgb(179,184,187)"/><polygon points="232.12052872550487,224.6071728384495 231.0400816117525,220.88446923136712 228.8791797146797,213.43905552387238" fill="rgb(207,212,215)"/><polygon points="257.20912883019446,231.78848923534156 256.12867952513693,228.06578414827587 256.12867952513693,219.12178418159485" fill="rgb(169,174,177)"/><polygon points="209.7359268758297,229.26387372046707 200.37737365716697,236.42216941058635 209.7359268758297,224.1210734605789" fill="rgb(168,173,176)"/><polygon points="242.20737919688224,230.04158446907996 249.2831736819744,230.04158446907996 249.2831736819744,219.979584069252" fill="rgb(192,197,200)"/><polygon points="249.2831736819744,230.04158446907996 242.20737919688224,230.04158446907996 236.07956195032597,231.8931001329422" fill="rgb(215,220,223)"/><polygon points="233.20097693490982,237.2738791319728 257.20912883019446,231.78848923534156 255.04822802877425,224.34307758122682" fill="rgb(213,218,221)"/><polygon points="242.20737919688224,230.04158446907996 249.2831736819744,219.979584069252 242.20737919688224,219.979584069252" fill="rgb(192,197,200)"/><polygon points="236.07956195032597,231.8931001329422 242.20737919688224,230.04158446907996 242.20737919688224,219.979584069252" fill="rgb(186,191,194)"/><polygon points="257.20912883019446,231.78848923534156 256.12867952513693,219.12178418159485 257.20912883019446,222.84448893547057" fill="rgb(169,174,177)"/><polygon points="232.12052872550487,233.55117313832045 233.20097693490982,237.2738791319728 255.04822802877425,224.34307758122682" fill="rgb(213,218,221)"/><polygon points="244.37459533977508,204.41135345727204 268.1298673325777,245.0777190223336 280.29785728883746,257.3271585252881" fill="rgb(215,220,223)"/><polygon points="231.0400816117525,229.8284691980481 232.12052872550487,224.6071728384495 231.0400816117525,220.88446923136712" fill="rgb(169,174,177)"/><polygon points="249.2831736819744,230.04158446907996 255.41099202418326,221.83110030651093 249.2831736819744,219.979584069252" fill="rgb(190,195,198)"/><polygon points="249.2831736819744,230.04158446907996 255.41099202418326,231.89310070633888 255.41099202418326,221.83110030651093" fill="rgb(190,195,198)"/><polygon points="258.94888926672934,235.1000211966038 249.2831736819744,230.04158446907996 236.07956195032597,231.8931001329422" fill="rgb(215,220,223)"/><polygon points="258.94888926672934,235.1000211966038 255.41099202418326,231.89310070633888 249.2831736819744,230.04158446907996" fill="rgb(215,220,223)"/><polygon points="236.07956195032597,221.83109973311423 242.20737919688224,219.979584069252 249.2831736819744,219.979584069252" fill="rgb(215,220,223)"/><polygon points="236.07956195032597,231.8931001329422 242.20737919688224,219.979584069252 236.07956195032597,221.83109973311423" fill="rgb(186,191,194)"/><polygon points="280.29785728883746,252.18435826539994 268.1298673325777,239.93491876244545 244.37459533977508,199.26855319738388" fill="rgb(215,220,223)"/><polygon points="255.04822802877425,215.39907828092575 257.20912883019446,222.84448893547057 233.20097693490982,228.32987949848174" fill="rgb(213,218,221)"/><polygon points="231.0400816117525,229.8284691980481 232.12052872550487,233.55117313832045 232.12052872550487,224.6071728384495" fill="rgb(169,174,177)"/><polygon points="216.0270009448901,244.76238743670285 225.3022290315628,232.57081408768892 225.3022290315628,227.42801382780075" fill="rgb(168,173,176)"/><polygon points="255.04822802877425,215.39907828092575 233.20097693490982,228.32987949848174 232.12052872550487,224.6071728384495" fill="rgb(213,218,221)"/><polygon points="232.5416647077799,235.1000206232071 236.07956195032597,231.8931001329422 236.07956195032597,221.83109973311423" fill="rgb(172,177,180)"/><polygon points="282.98623099023104,240.9726933285594 270.4175384244919,223.56186146497726 282.98623099023104,235.82989306867123" fill="rgb(179,184,187)"/><polygon points="255.66237197828292,232.9084667518735 268.1298673325777,239.93491876244545 255.66237197828292,227.76566649198531" fill="rgb(179,184,187)"/><polygon points="258.28957594394683,235.51119580239057 257.20912883019446,231.78848923534156 257.20912883019446,222.84448893547057" fill="rgb(169,174,177)"/><polygon points="209.7359268758297,229.26387372046707 200.37737365716697,241.56496967047454 200.37737365716697,236.42216941058635" fill="rgb(168,173,176)"/><polygon points="236.07956195032597,221.83109973311423 249.2831736819744,219.979584069252 258.94888926672934,225.0380207967758" fill="rgb(215,220,223)"/><polygon points="249.2831736819744,219.979584069252 255.41099202418326,221.83110030651093 258.94888926672934,225.0380207967758" fill="rgb(215,220,223)"/><polygon points="255.41099202418326,231.89310070633888 258.94888926672934,225.0380207967758 255.41099202418326,221.83110030651093" fill="rgb(180,185,188)"/><polygon points="255.41099202418326,231.89310070633888 258.94888926672934,235.1000211966038 258.94888926672934,225.0380207967758" fill="rgb(180,185,188)"/><polygon points="232.5416647077799,235.1000206232071 236.07956195032597,221.83109973311423 232.5416647077799,225.03802022337914" fill="rgb(172,177,180)"/><polygon points="236.07956195032597,231.8931001329422 232.5416647077799,235.1000206232071 232.5416647077799,238.8030530977249" fill="rgb(215,220,223)"/><polygon points="233.20097693490982,237.2738791319728 258.28957594394683,235.51119580239057 257.20912883019446,231.78848923534156" fill="rgb(213,218,221)"/><polygon points="258.28957594394683,235.51119580239057 257.20912883019446,222.84448893547057 258.28957594394683,226.56719616889953" fill="rgb(169,174,177)"/><polygon points="232.12052872550487,233.55117313832045 233.20097693490982,228.32987949848174 232.12052872550487,224.6071728384495" fill="rgb(169,174,177)"/><polygon points="257.20912883019446,222.84448893547057 258.28957594394683,226.56719616889953 233.20097693490982,228.32987949848174" fill="rgb(213,218,221)"/><polygon points="232.5416647077799,238.8030530977249 232.5416647077799,235.1000206232071 232.5416647077799,225.03802022337914" fill="rgb(165,170,173)"/><polygon points="236.07956195032597,231.8931001329422 242.20738029253482,243.86148982524873 258.94888926672934,235.1000211966038" fill="rgb(215,220,223)"/><polygon points="232.5416647077799,228.74105269789695 232.5416647077799,225.03802022337914 236.07956195032597,221.83109973311423" fill="rgb(215,220,223)"/><polygon points="232.12052872550487,233.55117313832045 233.20097693490982,237.2738791319728 233.20097693490982,228.32987949848174" fill="rgb(169,174,177)"/><polygon points="295.25303840053084,253.32161170870066 282.98623099023104,240.9726933285594 270.4175384244919,228.70466172486545" fill="rgb(215,220,223)"/><polygon points="233.20097693490982,237.2738791319728 258.28957594394683,235.51119580239057 258.28957594394683,226.56719616889953" fill="rgb(191,196,199)"/><polygon points="216.0270009448901,244.76238743670285 225.3022290315628,227.42801382780075 216.0270009448901,239.6195871768147" fill="rgb(168,173,176)"/><polygon points="255.66237197828292,232.9084667518735 268.1298673325777,245.0777190223336 268.1298673325777,239.93491876244545" fill="rgb(179,184,187)"/><polygon points="258.94888926672934,235.1000211966038 258.94888926672934,228.74105327129365 258.94888926672934,225.0380207967758" fill="rgb(165,170,173)"/><polygon points="209.7359268758297,229.26387372046707 200.37737365716697,241.56496967047454 191.33649504327775,253.9284506061673" fill="rgb(215,220,223)"/><polygon points="270.4175384244919,223.56186146497726 282.98623099023104,235.82989306867123 295.25303840053084,248.1788114488125" fill="rgb(215,220,223)"/><polygon points="258.94888926672934,235.1000211966038 258.94888926672934,238.8030536711216 258.94888926672934,228.74105327129365" fill="rgb(165,170,173)"/><polygon points="236.07956195032597,231.8931001329422 232.5416647077799,238.8030530977249 242.20738029253482,243.86148982524873" fill="rgb(215,220,223)"/><polygon points="233.20097693490982,237.2738791319728 258.28957594394683,226.56719616889953 233.20097693490982,228.32987949848174" fill="rgb(191,196,199)"/><polygon points="191.33649504327775,248.78565034627914 200.37737365716697,236.42216941058635 209.7359268758297,224.1210734605789" fill="rgb(215,220,223)"/><polygon points="255.41099311983587,242.0099735879898 258.94888926672934,238.8030536711216 258.94888926672934,235.1000211966038" fill="rgb(215,220,223)"/><polygon points="258.94888926672934,225.0380207967758 242.20738029253482,233.79948942542077 236.07956195032597,221.83109973311423" fill="rgb(215,220,223)"/><polygon points="232.5416647077799,238.8030530977249 232.5416647077799,225.03802022337914 232.5416647077799,228.74105269789695" fill="rgb(165,170,173)"/><polygon points="244.37459533977508,204.41135345727204 280.29785728883746,257.3271585252881 292.1663692383766,269.6568087700009" fill="rgb(215,220,223)"/><polygon points="242.20738029253482,233.79948942542077 232.5416647077799,228.74105269789695 236.07956195032597,221.83109973311423" fill="rgb(215,220,223)"/><polygon points="242.20738029253482,243.86148982524873 255.41099311983587,242.0099735879898 258.94888926672934,235.1000211966038" fill="rgb(215,220,223)"/><polygon points="234.89236431002618,220.44097767859697 244.79743396615982,208.3728479269147 158.3500761486292,304.00558372169735" fill="rgb(215,220,223)"/><polygon points="258.94888926672934,225.0380207967758 258.94888926672934,228.74105327129365 255.41099311983587,231.94797318816185" fill="rgb(215,220,223)"/><polygon points="236.07956195032597,242.0099735879898 232.5416647077799,238.8030530977249 232.5416647077799,228.74105269789695" fill="rgb(180,185,188)"/><polygon points="292.1663692383766,264.5140085101128 280.29785728883746,252.18435826539994 244.37459533977508,199.26855319738388" fill="rgb(215,220,223)"/><polygon points="258.94888926672934,238.8030536711216 255.41099311983587,231.94797318816185 258.94888926672934,228.74105327129365" fill="rgb(172,177,180)"/><polygon points="158.3500761486292,298.86278346180916 244.79743396615982,203.23004766702653 234.89236431002618,215.2981774187088" fill="rgb(215,220,223)"/><polygon points="295.25303840053084,253.32161170870066 282.98623099023104,240.9726933285594 282.98623099023104,235.82989306867123" fill="rgb(179,184,187)"/><polygon points="258.94888926672934,238.8030536711216 255.41099311983587,242.0099735879898 255.41099311983587,231.94797318816185" fill="rgb(172,177,180)"/><polygon points="232.5416647077799,238.8030530977249 236.07956195032597,242.0099735879898 242.20738029253482,243.86148982524873" fill="rgb(215,220,223)"/><polygon points="258.94888926672934,225.0380207967758 255.41099311983587,231.94797318816185 242.20738029253482,233.79948942542077" fill="rgb(215,220,223)"/><polygon points="236.07956195032597,242.0099735879898 232.5416647077799,228.74105269789695 236.07956195032597,231.94797318816185" fill="rgb(180,185,188)"/><polygon points="200.37737365716697,241.56496967047454 191.33649504327775,248.78565034627914 200.37737365716697,236.42216941058635" fill="rgb(167,172,175)"/><polygon points="242.20738029253482,243.86148982524873 236.07956195032597,242.0099735879898 236.07956195032597,231.94797318816185" fill="rgb(190,195,198)"/><polygon points="242.20738029253482,243.86148982524873 249.28317477762698,243.86148982524873 255.41099311983587,242.0099735879898" fill="rgb(215,220,223)"/><polygon points="242.20738029253482,233.79948942542077 236.07956195032597,231.94797318816185 232.5416647077799,228.74105269789695" fill="rgb(215,220,223)"/><polygon points="255.41099311983587,242.0099735879898 249.28317477762698,233.79948942542077 255.41099311983587,231.94797318816185" fill="rgb(186,191,194)"/><polygon points="255.41099311983587,242.0099735879898 249.28317477762698,243.86148982524873 249.28317477762698,233.79948942542077" fill="rgb(186,191,194)"/><polygon points="242.20738029253482,243.86148982524873 236.07956195032597,231.94797318816185 242.20738029253482,233.79948942542077" fill="rgb(190,195,198)"/><polygon points="249.28317477762698,243.86148982524873 242.20738029253482,243.86148982524873 242.20738029253482,233.79948942542077" fill="rgb(192,197,200)"/><polygon points="255.41099311983587,231.94797318816185 249.28317477762698,233.79948942542077 242.20738029253482,233.79948942542077" fill="rgb(215,220,223)"/><polygon points="249.28317477762698,243.86148982524873 242.20738029253482,233.79948942542077 249.28317477762698,233.79948942542077" fill="rgb(192,197,200)"/><polygon points="207.066659711957,257.0157290115952 216.0270009448901,244.76238743670285 216.0270009448901,239.6195871768147" fill="rgb(167,172,175)"/><polygon points="268.1298673325777,245.0777190223336 280.29785728883746,252.18435826539994 268.1298673325777,239.93491876244545" fill="rgb(179,184,187)"/><polygon points="295.25303840053084,253.32161170870066 282.98623099023104,235.82989306867123 295.25303840053084,248.1788114488125" fill="rgb(179,184,187)"/><polygon points="200.37737365716697,241.56496967047454 191.33649504327775,253.9284506061673 191.33649504327775,248.78565034627914" fill="rgb(167,172,175)"/><polygon points="225.3022290315628,232.57081408768892 234.89236431002618,220.44097767859697 158.3500761486292,304.00558372169735" fill="rgb(215,220,223)"/><polygon points="158.3500761486292,298.86278346180916 234.89236431002618,215.2981774187088 225.3022290315628,227.42801382780075" fill="rgb(215,220,223)"/><polygon points="207.066659711957,257.0157290115952 216.0270009448901,239.6195871768147 207.066659711957,251.8729287517071" fill="rgb(167,172,175)"/><polygon points="268.1298673325777,245.0777190223336 280.29785728883746,257.3271585252881 280.29785728883746,252.18435826539994" fill="rgb(179,184,187)"/><polygon points="341.3009459045529,303.5256641730666 295.25303840053084,253.32161170870066 244.37459533977508,204.41135345727204" fill="rgb(215,220,223)"/><polygon points="244.37459533977508,199.26855319738388 295.25303840053084,248.1788114488125 341.3009459045529,298.3828639131784" fill="rgb(215,220,223)"/><polygon points="244.79743396615982,208.3728479269147 191.33649504327775,253.9284506061673 158.3500761486292,304.00558372169735" fill="rgb(215,220,223)"/><polygon points="158.3500761486292,298.86278346180916 191.33649504327775,248.78565034627914 244.79743396615982,203.23004766702653" fill="rgb(215,220,223)"/><polygon points="307.21793600320814,265.7513924959302 295.25303840053084,253.32161170870066 295.25303840053084,248.1788114488125" fill="rgb(179,184,187)"/><polygon points="191.33649504327775,253.9284506061673 182.61330582547188,261.21148100376126 191.33649504327775,248.78565034627914" fill="rgb(167,172,175)"/><polygon points="292.1663692383766,269.6568087700009 341.3009459045529,303.5256641730666 244.37459533977508,204.41135345727204" fill="rgb(215,220,223)"/><polygon points="244.37459533977508,199.26855319738388 341.3009459045529,298.3828639131784 292.1663692383766,264.5140085101128" fill="rgb(215,220,223)"/><polygon points="158.3500761486292,304.00558372169735 216.0270009448901,244.76238743670285 225.3022290315628,232.57081408768892" fill="rgb(215,220,223)"/><polygon points="225.3022290315628,227.42801382780075 216.0270009448901,239.6195871768147 158.3500761486292,298.86278346180916" fill="rgb(215,220,223)"/><polygon points="198.42118074905872,269.330866586268 207.066659711957,257.0157290115952 207.066659711957,251.8729287517071" fill="rgb(167,172,175)"/><polygon points="280.29785728883746,257.3271585252881 292.1663692383766,264.5140085101128 280.29785728883746,252.18435826539994" fill="rgb(179,184,187)"/><polygon points="307.21793600320814,265.7513924959302 295.25303840053084,248.1788114488125 307.21793600320814,260.608592236042" fill="rgb(179,184,187)"/><polygon points="191.33649504327775,253.9284506061673 182.61330582547188,266.35428126364945 182.61330582547188,261.21148100376126" fill="rgb(167,172,175)"/><polygon points="318.88089914608,278.262011320889 307.21793600320814,265.7513924959302 295.25303840053084,253.32161170870066" fill="rgb(215,220,223)"/><polygon points="198.42118074905872,269.330866586268 207.066659711957,251.8729287517071 198.42118074905872,264.1880663263798" fill="rgb(167,172,175)"/><polygon points="280.29785728883746,257.3271585252881 292.1663692383766,269.6568087700009 292.1663692383766,264.5140085101128" fill="rgb(179,184,187)"/><polygon points="191.33649504327775,253.9284506061673 182.61330582547188,266.35428126364945 174.20782736897468,278.84243440657855" fill="rgb(215,220,223)"/><polygon points="295.25303840053084,248.1788114488125 307.21793600320814,260.608592236042 318.88089914608,273.11921106100084" fill="rgb(215,220,223)"/><polygon points="174.20782736897468,273.69963414669036 182.61330582547188,261.21148100376126 191.33649504327775,248.78565034627914" fill="rgb(215,220,223)"/><polygon points="158.3500761486292,304.00558372169735 207.066659711957,257.0157290115952 216.0270009448901,244.76238743670285" fill="rgb(215,220,223)"/><polygon points="216.0270009448901,239.6195871768147 207.066659711957,251.8729287517071 158.3500761486292,298.86278346180916" fill="rgb(215,220,223)"/><polygon points="318.88089914608,278.262011320889 307.21793600320814,265.7513924959302 307.21793600320814,260.608592236042" fill="rgb(178,183,186)"/><polygon points="182.61330582547188,266.35428126364945 174.20782736897468,273.69963414669036 182.61330582547188,261.21148100376126" fill="rgb(166,171,174)"/><polygon points="190.0905397464037,281.7078312316537 198.42118074905872,269.330866586268 198.42118074905872,264.1880663263798" fill="rgb(166,171,174)"/><polygon points="292.1663692383766,269.6568087700009 303.7354239985943,276.9238941526413 292.1663692383766,264.5140085101128" fill="rgb(178,183,186)"/><polygon points="318.88089914608,278.262011320889 307.21793600320814,260.608592236042 318.88089914608,273.11921106100084" fill="rgb(178,183,186)"/><polygon points="182.61330582547188,266.35428126364945 174.20782736897468,278.84243440657855 174.20782736897468,273.69963414669036" fill="rgb(166,171,174)"/><polygon points="158.3500761486292,304.00558372169735 198.42118074905872,269.330866586268 207.066659711957,257.0157290115952" fill="rgb(215,220,223)"/><polygon points="207.066659711957,251.8729287517071 198.42118074905872,264.1880663263798 158.3500761486292,298.86278346180916" fill="rgb(215,220,223)"/><polygon points="190.0905397464037,281.7078312316537 198.42118074905872,264.1880663263798 190.0905397464037,276.5650309717655" fill="rgb(166,171,174)"/><polygon points="292.1663692383766,269.6568087700009 303.7354239985943,282.0666944125295 303.7354239985943,276.9238941526413" fill="rgb(178,183,186)"/><polygon points="341.3009459045529,303.5256641730666 318.88089914608,278.262011320889 295.25303840053084,253.32161170870066" fill="rgb(215,220,223)"/><polygon points="191.33649504327775,253.9284506061673 174.20782736897468,278.84243440657855 158.3500761486292,304.00558372169735" fill="rgb(215,220,223)"/><polygon points="295.25303840053084,248.1788114488125 318.88089914608,273.11921106100084 341.3009459045529,298.3828639131784" fill="rgb(215,220,223)"/><polygon points="158.3500761486292,298.86278346180916 174.20782736897468,273.69963414669036 191.33649504327775,248.78565034627914" fill="rgb(215,220,223)"/><polygon points="330.2419081073999,290.853442954123 318.88089914608,278.262011320889 318.88089914608,273.11921106100084" fill="rgb(178,183,186)"/><polygon points="174.20782736897468,278.84243440657855 166.1200804911852,286.25007709145547 174.20782736897468,273.69963414669036" fill="rgb(166,171,174)"/><polygon points="158.3500761486292,304.00558372169735 190.0905397464037,281.7078312316537 198.42118074905872,269.330866586268" fill="rgb(215,220,223)"/><polygon points="292.1663692383766,269.6568087700009 303.7354239985943,282.0666944125295 341.3009459045529,303.5256641730666" fill="rgb(215,220,223)"/><polygon points="198.42118074905872,264.1880663263798 190.0905397464037,276.5650309717655 158.3500761486292,298.86278346180916" fill="rgb(215,220,223)"/><polygon points="341.3009459045529,298.3828639131784 303.7354239985943,276.9238941526413 292.1663692383766,264.5140085101128" fill="rgb(215,220,223)"/><polygon points="182.07472492572666,294.14665233433243 190.0905397464037,281.7078312316537 190.0905397464037,276.5650309717655" fill="rgb(166,171,174)"/><polygon points="303.7354239985943,282.0666944125295 315.0050456053689,289.4140416050702 303.7354239985943,276.9238941526413" fill="rgb(178,183,186)"/><polygon points="330.2419081073999,290.853442954123 318.88089914608,273.11921106100084 330.2419081073999,285.7106426942348" fill="rgb(178,183,186)"/><polygon points="174.20782736897468,278.84243440657855 166.1200804911852,291.3928773513436 166.1200804911852,286.25007709145547" fill="rgb(166,171,174)"/><polygon points="182.07472492572666,294.14665233433243 190.0905397464037,276.5650309717655 182.07472492572666,289.0038520744443" fill="rgb(166,171,174)"/><polygon points="303.7354239985943,282.0666944125295 315.0050456053689,294.5568418649584 315.0050456053689,289.4140416050702" fill="rgb(178,183,186)"/><polygon points="341.3009459045529,303.5256641730666 330.2419081073999,290.853442954123 318.88089914608,278.262011320889" fill="rgb(215,220,223)"/><polygon points="174.20782736897468,278.84243440657855 166.1200804911852,291.3928773513436 158.3500761486292,304.00558372169735" fill="rgb(215,220,223)"/><polygon points="318.88089914608,273.11921106100084 330.2419081073999,285.7106426942348 341.3009459045529,298.3828639131784" fill="rgb(215,220,223)"/><polygon points="158.3500761486292,298.86278346180916 166.1200804911852,286.25007709145547 174.20782736897468,273.69963414669036" fill="rgb(215,220,223)"/><polygon points="158.3500761486292,304.00558372169735 182.07472492572666,294.14665233433243 190.0905397464037,281.7078312316537" fill="rgb(215,220,223)"/><polygon points="303.7354239985943,282.0666944125295 315.0050456053689,294.5568418649584 341.3009459045529,303.5256641730666" fill="rgb(215,220,223)"/><polygon points="190.0905397464037,276.5650309717655 182.07472492572666,289.0038520744443 158.3500761486292,298.86278346180916" fill="rgb(215,220,223)"/><polygon points="341.3009459045529,298.3828639131784 315.0050456053689,289.4140416050702 303.7354239985943,276.9238941526413" fill="rgb(215,220,223)"/><polygon points="341.3009459045529,303.5256641730666 330.2419081073999,290.853442954123 330.2419081073999,285.7106426942348" fill="rgb(178,183,186)"/><polygon points="166.1200804911852,291.3928773513436 158.3500761486292,298.86278346180916 166.1200804911852,286.25007709145547" fill="rgb(165,170,173)"/><polygon points="174.3737168391943,306.64736100107433 182.07472492572666,294.14665233433243 182.07472492572666,289.0038520744443" fill="rgb(165,170,173)"/><polygon points="315.0050456053689,294.5568418649584 325.97525234240294,301.9844757026434 315.0050456053689,289.4140416050702" fill="rgb(178,183,186)"/><polygon points="341.3009459045529,303.5256641730666 330.2419081073999,285.7106426942348 341.3009459045529,298.3828639131784" fill="rgb(178,183,186)"/><polygon points="166.1200804911852,291.3928773513436 158.3500761486292,304.00558372169735 158.3500761486292,298.86278346180916" fill="rgb(165,170,173)"/><polygon points="158.3500761486292,304.00558372169735 174.3737168391943,306.64736100107433 182.07472492572666,294.14665233433243" fill="rgb(215,220,223)"/><polygon points="315.0050456053689,294.5568418649584 325.97525234240294,307.12727596253154 341.3009459045529,303.5256641730666" fill="rgb(215,220,223)"/><polygon points="321.2187593435645,307.97798218935725 338.70463715034725,298.8269570288062 338.70463715034725,293.23695686221123" fill="rgb(180,185,188)"/><polygon points="182.07472492572666,289.0038520744443 174.3737168391943,301.50456074118614 158.3500761486292,298.86278346180916" fill="rgb(215,220,223)"/><polygon points="161.29536284965278,298.8269570288062 178.7812406564355,302.3879820227623 161.29536284965278,293.23695686221123" fill="rgb(186,191,194)"/><polygon points="341.3009459045529,298.3828639131784 325.97525234240294,301.9844757026434 315.0050456053689,289.4140416050702" fill="rgb(215,220,223)"/><polygon points="140.15606109660865,309.8899579462409 161.29536284965278,298.8269570288062 161.29536284965278,293.23695686221123" fill="rgb(180,185,188)"/><polygon points="174.3737168391943,306.64736100107433 182.07472492572666,289.0038520744443 174.3737168391943,301.50456074118614" fill="rgb(165,170,173)"/><polygon points="338.70463715034725,298.8269570288062 359.84393890339135,304.2999577796459 338.70463715034725,293.23695686221123" fill="rgb(186,191,194)"/><polygon points="315.0050456053689,294.5568418649584 325.97525234240294,307.12727596253154 325.97525234240294,301.9844757026434" fill="rgb(178,183,186)"/><polygon points="325.97525234240294,307.12727596253154 341.3009459045529,303.5256641730666 341.3009459045529,298.3828639131784" fill="rgb(187,192,195)"/><polygon points="161.29536284965278,298.8269570288062 178.7812406564355,307.97798218935725 178.7812406564355,302.3879820227623" fill="rgb(186,191,194)"/><polygon points="158.3500761486292,304.00558372169735 174.3737168391943,301.50456074118614 158.3500761486292,298.86278346180916" fill="rgb(192,197,200)"/><polygon points="321.2187593435645,307.97798218935725 338.70463715034725,293.23695686221123 321.2187593435645,302.3879820227623" fill="rgb(180,185,188)"/><polygon points="158.3500761486292,304.00558372169735 174.3737168391943,306.64736100107433 174.3737168391943,301.50456074118614" fill="rgb(192,197,200)"/><polygon points="325.97525234240294,307.12727596253154 341.3009459045529,298.3828639131784 325.97525234240294,301.9844757026434" fill="rgb(187,192,195)"/><polygon points="338.70463715034725,298.8269570288062 359.84393890339135,309.8899579462409 359.84393890339135,304.2999577796459" fill="rgb(186,191,194)"/><polygon points="140.15606109660865,309.8899579462409 161.29536284965278,293.23695686221123 140.15606109660865,304.2999577796459" fill="rgb(180,185,188)"/><polygon points="338.70463715034725,298.8269570288062 321.2187593435645,307.97798218935725 342.35806109660865,319.040983106792" fill="rgb(215,220,223)"/><polygon points="157.64193890339135,319.040983106792 178.7812406564355,307.97798218935725 161.29536284965278,298.8269570288062" fill="rgb(215,220,223)"/><polygon points="342.35806109660865,319.040983106792 359.84393890339135,309.8899579462409 338.70463715034725,298.8269570288062" fill="rgb(215,220,223)"/><polygon points="161.29536284965278,298.8269570288062 140.15606109660865,309.8899579462409 157.64193890339135,319.040983106792" fill="rgb(215,220,223)"/><polygon points="342.35806109660865,313.450982940197 321.2187593435645,302.3879820227623 338.70463715034725,293.23695686221123" fill="rgb(215,220,223)"/><polygon points="161.29536284965278,293.23695686221123 178.7812406564355,302.3879820227623 157.64193890339135,313.450982940197" fill="rgb(215,220,223)"/><polygon points="338.70463715034725,293.23695686221123 359.84393890339135,304.2999577796459 342.35806109660865,313.450982940197" fill="rgb(215,220,223)"/><polygon points="157.64193890339135,313.450982940197 140.15606109660865,304.2999577796459 161.29536284965278,293.23695686221123" fill="rgb(215,220,223)"/><polygon points="342.35806109660865,319.040983106792 321.2187593435645,307.97798218935725 321.2187593435645,302.3879820227623" fill="rgb(186,191,194)"/><polygon points="178.7812406564355,307.97798218935725 157.64193890339135,313.450982940197 178.7812406564355,302.3879820227623" fill="rgb(180,185,188)"/><polygon points="157.64193890339135,319.040983106792 140.15606109660865,309.8899579462409 140.15606109660865,304.2999577796459" fill="rgb(186,191,194)"/><polygon points="359.84393890339135,309.8899579462409 342.35806109660865,313.450982940197 359.84393890339135,304.2999577796459" fill="rgb(180,185,188)"/><polygon points="178.7812406564355,307.97798218935725 157.64193890339135,319.040983106792 157.64193890339135,313.450982940197" fill="rgb(180,185,188)"/><polygon points="342.35806109660865,319.040983106792 321.2187593435645,302.3879820227623 342.35806109660865,313.450982940197" fill="rgb(186,191,194)"/><polygon points="359.84393890339135,309.8899579462409 342.35806109660865,319.040983106792 342.35806109660865,313.450982940197" fill="rgb(180,185,188)"/><polygon points="157.64193890339135,319.040983106792 140.15606109660865,304.2999577796459 157.64193890339135,313.450982940197" fill="rgb(186,191,194)"/></svg>